<svg width="192" height="192" viewBox="0 0 192 192" fill="none" xmlns="http://www.w3.org/2000/svg">
<path d="M134.795 121.614C140.332 122.879 143.408 120.349 144.023 117.819C144.638 114.024 141.562 112.127 139.101 111.495C131.719 110.23 121.337 111.495 117.031 112.127C121.952 116.554 128.027 119.716 134.795 121.614Z" fill="#C2887E"/>
<path d="M87.5766 40.2653C86.3463 40.2653 85.116 40.8977 84.5005 42.1626C82.6547 45.9573 82.0399 56.0765 86.9611 69.9113C89.4225 62.9543 90.6528 54.8116 91.2676 47.2222C91.2676 44.06 90.6528 40.2653 87.5766 40.2653Z" fill="#C2887E"/>
<path d="M91.8831 93.2327C90.6528 97.0274 86.9611 107.7 83.885 113.392C91.8328 110.474 101.875 108.162 102.897 108.257C102.478 107.733 101.974 107.12 101.411 106.435C98.6323 103.054 94.4205 97.928 91.8831 93.2327Z" fill="#C2887E"/>
<path d="M41.5888 150.627C46.5106 150.627 54.5087 141.773 63.0446 127.938C48.9715 134.184 39.1279 141.141 38.5127 146.2C37.8975 147.465 38.5127 148.73 39.1279 149.995C39.7432 150.627 40.9735 150.627 41.5888 150.627Z" fill="#C2887E"/>
<path fill-rule="evenodd" clip-rule="evenodd" d="M159.794 3.05176e-05H31.9589C14.3815 3.05176e-05 0 14.3815 0 31.9589V159.794C0 177.372 14.3815 191.753 31.9589 191.753H159.794C177.372 191.753 191.753 177.372 191.753 159.794V31.9589C191.753 14.3815 177.371 3.05176e-05 159.794 3.05176e-05ZM114.522 106.153C123.093 105.067 144.323 102.379 152.636 111.495C155.097 114.024 156.251 118.452 154.636 121.456C153.482 124.618 150.406 128.413 141.793 128.413C135.641 128.413 123.336 126.594 109.878 113.945C98.1892 115.843 86.5772 119.637 79.1939 122.167C69.9655 138.611 57.0462 156.873 44.2035 156.873C41.1274 156.873 38.0513 156.24 35.5904 153.71C33.1295 151.813 31.8991 148.018 32.5143 144.856C34.36 133.472 55.8159 123.432 65.6591 119.637C72.9654 106.435 79.117 89.4381 82.8086 78.054C76.0408 62.3219 74.1957 47.2222 78.5022 39.6329C80.348 36.4706 83.4241 34.5733 87.115 34.5733C96.882 34.5733 100.573 43.9809 100.573 53.4676C100.573 63.5868 98.1123 74.2593 95.0361 83.746C95.2862 84.1316 95.5735 84.5817 95.8971 85.0885C98.7576 89.5689 104.447 98.4805 112.186 106.435C112.788 106.372 113.578 106.272 114.522 106.153Z" fill="#C2887E"/>
</svg>
