<svg width="193" height="190" viewBox="0 0 193 190" fill="none" xmlns="http://www.w3.org/2000/svg">
<path d="M84.6542 84.5987C83.8503 82.09 83.1267 79.6621 82.3228 77.1534C81.5189 74.6446 80.7953 72.2977 80.1522 69.9508C79.509 67.6848 78.9463 65.5807 78.3835 63.6384H78.2227C77.4992 67.1183 76.6149 70.5982 75.4894 74.0781C74.2835 77.9627 73.0776 82.009 71.7913 86.0554C70.6658 90.1828 69.4599 93.9864 68.254 97.3853H88.6739C88.1915 95.6778 87.5484 93.6626 86.8248 91.5504C86.1013 89.3735 85.3778 87.0266 84.6542 84.5987ZM158.777 0.19104H34.1672C15.2747 0.19104 0 15.5673 0 34.5854V155.168C0 174.186 15.2747 189.562 34.1672 189.562H158.777C177.669 189.562 192.944 174.186 192.944 155.168V34.5854C192.944 15.5673 177.669 0.19104 158.777 0.19104ZM118.178 133.965H101.368C100.813 134.046 100.251 133.641 100.09 133.074L93.4975 113.814H63.5912L57.4813 132.832C57.3205 133.56 56.6773 134.046 55.9538 133.973H40.8398C39.9555 133.973 39.7143 133.479 39.9555 132.516L65.8422 57.4879C66.0834 56.6786 66.3245 55.7884 66.6461 54.8173C66.9677 53.1178 67.1285 51.3374 67.1285 49.557C67.0481 49.1524 67.3696 48.7477 67.7716 48.6668H88.5935C89.2366 48.6668 89.5582 48.9096 89.6386 49.3142L118.982 132.67C119.223 133.552 118.982 133.965 118.178 133.965ZM145.512 132.751C145.512 133.641 145.198 134.046 144.475 134.046H128.71C127.906 134.046 127.504 133.552 127.504 132.751V70.4364C127.504 69.6271 127.834 69.3034 128.557 69.3034H144.475C145.198 69.3034 145.512 69.708 145.512 70.4364V132.751ZM143.832 59.673C141.975 61.6152 139.241 62.6673 136.508 62.5054C133.855 62.5864 131.282 61.5343 129.345 59.673C127.496 57.6498 126.531 54.9792 126.612 52.2276C126.531 49.4761 127.576 46.8864 129.498 45.025C131.443 43.1637 134.016 42.1926 136.669 42.1926C139.812 42.1926 142.208 43.1637 143.985 45.025C145.753 46.9673 146.718 49.557 146.638 52.2276C146.718 54.9792 145.753 57.6498 143.832 59.673Z" fill="#B2D8D0"/>
</svg>
