<svg width="192" height="192" viewBox="0 0 192 192" fill="none" xmlns="http://www.w3.org/2000/svg">
<path fill-rule="evenodd" clip-rule="evenodd" d="M86.7971 106.837C86.7971 123.066 101.512 136.22 119.659 136.22C137.805 136.22 152.519 123.066 152.519 106.837C152.519 90.6107 137.805 77.4559 119.659 77.4559C101.513 77.4559 86.7971 90.6107 86.7971 106.837ZM133.541 116.925C136.94 113.596 138.876 109.099 138.609 104.255C138.345 99.5518 136.048 95.4016 132.588 92.4611C129.187 89.5701 124.621 87.8056 119.631 87.8056C114.642 87.8056 110.074 89.5698 106.673 92.4611C103.214 95.4016 100.918 99.5546 100.657 104.259C100.391 109.099 102.323 113.596 105.721 116.925C109.18 120.317 114.115 122.447 119.631 122.447C125.148 122.447 130.083 120.317 133.541 116.925Z" fill="#E8CCC4"/>
<path fill-rule="evenodd" clip-rule="evenodd" d="M159.794 0H31.9589C14.3815 0 0 14.3815 0 31.9589V159.794C0 177.372 14.3815 191.753 31.9589 191.753H159.794C177.372 191.753 191.753 177.372 191.753 159.794V31.9589C191.753 14.3815 177.371 0 159.794 0ZM165.961 86.9453C169.406 92.4798 171.611 98.5125 172.516 104.874C172.979 108.161 173.088 111.484 172.835 114.749C172.564 118.121 171.911 121.468 170.898 124.701C168.849 131.236 165.396 137.229 160.636 142.511C155.695 147.978 149.657 152.33 142.693 155.446C135.319 158.732 127.393 160.407 119.133 160.427H119.056C110.823 160.427 102.922 158.778 95.5713 155.529C88.6189 152.45 82.5783 148.115 77.6185 142.648C72.8519 137.393 69.3938 131.409 67.3408 124.868C66.3472 121.686 65.7197 117.766 65.6871 115.813C65.6699 114.579 65.8204 112.879 65.9444 111.72L36.9286 135.45C34.2988 137.573 31.1569 138.739 28.0778 138.739C24.9434 138.739 22.2771 137.536 20.5693 135.347C19.1364 133.512 18.5493 131.213 18.8706 128.698C19.2945 125.378 21.2594 122.155 24.2606 119.855L24.474 119.7L78.2051 79.9743L72.2412 79.9882C65.9873 80.0032 59.725 80.0183 53.4901 80.0183L48.9769 80.0156C46.1234 80.0156 43.5913 78.8683 41.8474 76.7881C40.2036 74.826 39.4683 72.2643 39.8849 69.9343C40.8333 64.6151 45.4433 61.4379 52.2138 61.4379L111.416 61.478C108.323 59.0354 105.215 56.5263 102.199 54.09L102.119 54.0254C99.0379 51.538 95.9603 49.0533 92.8762 46.6218C91.2943 45.3177 90.4645 43.6451 90.5336 41.9071C90.6091 40.0437 91.6892 38.2933 93.5789 36.9741C95.3368 35.7418 97.5976 35.0634 99.9417 35.0634C102.283 35.0634 104.459 35.7403 106.066 36.9705C106.094 36.9895 106.135 37.0221 106.175 37.057L154.51 74.1566L154.498 74.1681C159.1 77.8193 162.956 82.1151 165.961 86.9453Z" fill="#E8CCC4"/>
</svg>
