<?xml version="1.0" encoding="UTF-8"?>
<svg xmlns="http://www.w3.org/2000/svg" viewBox="0 0 504.68 473.84">
  <defs>
    <style>
      .d {
        fill: #282022;
      }

      .e {
        fill: #d5aba2;
      }
    </style>
  </defs>
  <g id="a" data-name="Слой 1"/>
  <g id="b" data-name="Слой 2">
    <g id="c" data-name="Слой 1">
      <g>
        <g>
          <g>
            <path class="e" d="M37.99,231.13c-12.87,.86-29.65-18.07-31.63-35.59-1.75-15.53,7.99-31.1,14.6-30.95,4.4,.1,3.98,7.1,14.6,20.12,10.58,12.97,17.49,13.97,19.46,21.66,2.75,10.74-6.8,24.07-17.03,24.76Z"/>
            <path class="e" d="M135.97,74.83c-14.83-8.05-11.73-35.18-5.49-50.07,5.66-13.51,18.07-26.88,25.13-24.48,4.72,1.6,2.14,8.14,9.66,24.18,8.19,17.49,15.03,19.57,14.44,27.33-1.1,14.3-28.13,31.51-43.74,23.05Z"/>
          </g>
          <g>
            <path class="e" d="M466.69,231.13c12.87,.86,29.65-18.07,31.63-35.59,1.75-15.53-7.99-31.1-14.6-30.95-4.4,.1-3.98,7.1-14.6,20.12-10.58,12.97-17.49,13.97-19.46,21.66-2.75,10.74,6.8,24.07,17.03,24.76Z"/>
            <path class="e" d="M368.71,74.83c14.83-8.05,11.73-35.18,5.49-50.07-5.66-13.51-18.07-26.88-25.13-24.48-4.72,1.6-2.14,8.14-9.66,24.18-8.19,17.49-15.03,19.57-14.44,27.33,1.1,14.3,28.13,31.51,43.74,23.05Z"/>
          </g>
        </g>
        <g>
          <circle class="d" cx="251.95" cy="294.53" r="179.32"/>
          <g>
            <circle class="d" cx="83.66" cy="255.74" r="83.66"/>
            <circle class="d" cx="421.01" cy="255.74" r="83.66"/>
          </g>
          <g>
            <circle class="d" cx="182.12" cy="142.78" r="112.87"/>
            <circle class="d" cx="322.55" cy="142.78" r="112.87"/>
          </g>
          <g>
            <circle class="e" cx="252.28" cy="260.23" r="60.93"/>
            <g>
              <circle class="e" cx="201.65" cy="340.43" r="60.93"/>
              <circle class="e" cx="303.8" cy="340.43" r="60.93"/>
            </g>
            <g>
              <circle class="e" cx="165.59" cy="114.44" r="45.95"/>
              <circle class="e" cx="339.08" cy="114.44" r="45.95"/>
            </g>
            <g>
              <circle class="e" cx="78.24" cy="247.52" r="37.91"/>
              <circle class="e" cx="426.43" cy="247.52" r="37.91"/>
            </g>
          </g>
        </g>
      </g>
    </g>
  </g>
</svg>