<svg width="193" height="192" viewBox="0 0 193 192" fill="none" xmlns="http://www.w3.org/2000/svg">
<path d="M133.821 53.4604C133.821 62.2451 126.644 69.3664 117.792 69.3664H101.762V37.5545H117.792C126.644 37.5545 133.821 44.6758 133.821 53.4604Z" fill="#E8CCC4"/>
<path d="M91.0758 79.9704V111.782H75.0462C66.1934 111.782 59.0167 104.661 59.0167 95.8764C59.0167 87.092 66.1934 79.9704 75.0462 79.9704H91.0758Z" fill="#E8CCC4"/>
<path d="M117.792 79.9704C108.939 79.9704 101.762 87.092 101.762 95.8764C101.762 104.661 108.939 111.782 117.792 111.782C126.644 111.782 133.821 104.661 133.821 95.8764C133.821 87.092 126.644 79.9704 117.792 79.9704Z" fill="#E8CCC4"/>
<path d="M91.0758 37.5545H75.0462C66.1934 37.5545 59.0167 44.6758 59.0167 53.4604C59.0167 62.2451 66.1934 69.3664 75.0462 69.3664H91.0758V37.5545Z" fill="#E8CCC4"/>
<path d="M91.0758 122.386H75.0462C66.1934 122.386 59.0167 129.508 59.0167 138.292C59.0167 147.077 66.1934 154.198 75.0462 154.198C83.8988 154.198 91.0758 147.077 91.0758 138.292V122.386Z" fill="#E8CCC4"/>
<path fill-rule="evenodd" clip-rule="evenodd" d="M160.786 1.90735e-05H32.1574C14.4708 1.90735e-05 0 14.3815 0 31.9589V159.794C0 177.372 14.4708 191.753 32.1574 191.753H160.787C178.473 191.753 192.944 177.372 192.944 159.794V31.9589C192.944 14.3815 178.473 1.90735e-05 160.786 1.90735e-05ZM48.3303 53.4604C48.3303 38.8194 60.2914 26.9505 75.0462 26.9505H117.792C132.547 26.9505 144.508 38.8194 144.508 53.4604C144.508 62.1324 140.311 69.8318 133.824 74.6684C140.311 79.505 144.508 87.2044 144.508 95.8764C144.508 110.518 132.547 122.386 117.792 122.386C111.777 122.386 106.227 120.414 101.762 117.086V138.292C101.762 152.934 89.8013 164.802 75.0462 164.802C60.2914 164.802 48.3303 152.934 48.3303 138.292C48.3303 129.62 52.5266 121.921 59.0141 117.084C52.5266 112.248 48.3303 104.548 48.3303 95.8764C48.3303 87.2044 52.5266 79.505 59.0141 74.6684C52.5266 69.8318 48.3303 62.1324 48.3303 53.4604Z" fill="#E8CCC4"/>
</svg>
