<svg width="1440" height="308" viewBox="0 0 1440 308" fill="none" xmlns="http://www.w3.org/2000/svg">
<rect width="1440" height="308" fill="#52444D"/>
<g clip-path="url(#clip0_0_1)">
<rect width="1440" height="1717" transform="translate(0 -1232)" fill="#282022"/>
<rect y="-1195" width="1440" height="1503" fill="#E8CCC4"/>
<rect x="-44" width="1528" height="308" rx="30" fill="#758F8A"/>
<mask id="mask0_0_1" style="mask-type:alpha" maskUnits="userSpaceOnUse" x="0" y="0" width="1440" height="308">
<rect width="1440" height="308" fill="#E8CCC4"/>
</mask>
<g mask="url(#mask0_0_1)">
<g opacity="0.3">
<path d="M178.811 163.776C185.337 164.097 187.285 172.814 181.517 175.882L159.396 187.652C156.706 189.083 155.389 192.204 156.24 195.13L167.334 233.264C169.074 239.246 162.147 243.962 157.219 240.151L129.479 218.695C127.15 216.893 123.894 216.903 121.575 218.719L93.8518 240.431C88.9367 244.281 81.9706 239.578 83.7028 233.58L94.8091 195.123C95.653 192.2 94.3351 189.086 91.6495 187.657L69.5188 175.883C63.7507 172.814 65.699 164.097 72.2247 163.776L103.009 162.261C105.677 162.129 107.986 160.363 108.812 157.822L119.398 125.236C121.325 119.308 129.711 119.308 131.637 125.236L142.224 157.822C143.05 160.363 145.359 162.129 148.027 162.261L178.811 163.776ZM140.838 60.4414V29.8018C140.838 25.7387 139.224 21.8421 136.351 18.9691C133.478 16.096 129.581 14.482 125.518 14.482C121.455 14.482 117.558 16.096 114.685 18.9691C111.812 21.8421 110.198 25.7387 110.198 29.8018V60.4414C110.198 64.5045 111.812 68.4011 114.685 71.2742C117.558 74.1472 121.455 75.7612 125.518 75.7612C129.581 75.7612 133.478 74.1472 136.351 71.2742C139.224 68.4011 140.838 64.5045 140.838 60.4414ZM110.198 305.558V336.198C110.198 340.261 111.812 344.158 114.685 347.031C117.558 349.904 121.455 351.518 125.518 351.518C129.581 351.518 133.478 349.904 136.351 347.031C139.224 344.158 140.838 340.261 140.838 336.198V305.558C140.838 301.495 139.224 297.599 136.351 294.726C133.478 291.853 129.581 290.239 125.518 290.239C121.455 290.239 117.558 291.853 114.685 294.726C111.812 297.599 110.198 301.495 110.198 305.558ZM244.675 63.8424C241.803 60.9704 237.907 59.357 233.844 59.357C229.782 59.357 225.886 60.9704 223.013 63.8424L201.351 85.5046C199.888 86.9178 198.721 88.6083 197.918 90.4774C197.115 92.3465 196.692 94.3567 196.675 96.3909C196.657 98.425 197.045 100.442 197.815 102.325C198.585 104.208 199.723 105.918 201.161 107.357C202.6 108.795 204.31 109.933 206.193 110.703C208.076 111.473 210.093 111.861 212.127 111.843C214.161 111.826 216.171 111.403 218.04 110.6C219.91 109.797 221.6 108.63 223.013 107.167L244.675 85.5046C247.547 82.6318 249.161 78.7358 249.161 74.6735C249.161 70.6113 247.547 66.7153 244.675 63.8424ZM6.36044 302.157C9.23333 305.029 13.1293 306.643 17.1915 306.643C21.2538 306.643 25.1498 305.029 28.0227 302.157L49.6849 280.495C52.4755 277.606 54.0196 273.736 53.9847 269.719C53.9498 265.702 52.3387 261.86 49.4982 259.02C46.6578 256.179 42.8154 254.568 38.7986 254.533C34.7818 254.498 30.912 256.042 28.0227 258.833L6.36044 280.495C3.48842 283.368 1.87501 287.264 1.87501 291.326C1.87501 295.389 3.48842 299.285 6.36044 302.157ZM278.716 167.68H248.076C244.013 167.68 240.117 169.294 237.244 172.167C234.371 175.04 232.757 178.937 232.757 183C232.757 187.063 234.371 190.96 237.244 193.833C240.117 196.706 244.013 198.32 248.076 198.32H278.716C282.779 198.32 286.676 196.706 289.549 193.833C292.422 190.96 294.036 187.063 294.036 183C294.036 178.937 292.422 175.04 289.549 172.167C286.676 169.294 282.779 167.68 278.716 167.68ZM-27.6802 198.32H2.95944C7.02251 198.32 10.9192 196.706 13.7922 193.833C16.6652 190.96 18.2793 187.063 18.2793 183C18.2793 178.937 16.6652 175.04 13.7922 172.167C10.9192 169.294 7.02251 167.68 2.95944 167.68H-27.6802C-31.7433 167.68 -35.6399 169.294 -38.5129 172.167C-41.386 175.04 -43 178.937 -43 183C-43 187.063 -41.386 190.96 -38.5129 193.833C-35.6399 196.706 -31.7433 198.32 -27.6802 198.32ZM223.013 302.157C225.903 304.948 229.772 306.492 233.789 306.457C237.806 306.422 241.648 304.811 244.489 301.971C247.329 299.13 248.94 295.288 248.975 291.271C249.01 287.254 247.466 283.385 244.675 280.495L223.013 258.833C220.124 256.042 216.254 254.498 212.237 254.533C208.22 254.568 204.378 256.179 201.538 259.02C198.697 261.86 197.086 265.702 197.051 269.719C197.016 273.736 198.56 277.606 201.351 280.495L223.013 302.157ZM49.6849 107.167C52.5569 104.294 54.1703 100.398 54.1703 96.3358C54.1703 92.2735 52.5569 88.3775 49.6849 85.5046L28.0227 63.8424C25.1333 61.0518 21.2635 59.5076 17.2467 59.5426C13.2299 59.5775 9.38747 61.1886 6.54705 64.029C3.70664 66.8695 2.09547 70.7119 2.06056 74.7287C2.02565 78.7455 3.56982 82.6153 6.36044 85.5046L28.0227 107.167C30.8955 110.039 34.7915 111.652 38.8538 111.652C42.916 111.652 46.812 110.039 49.6849 107.167Z" fill="#E8CCC4"/>
<path d="M1368.78 163.776C1375.3 164.097 1377.25 172.814 1371.48 175.882L1349.36 187.652C1346.67 189.083 1345.35 192.204 1346.2 195.13L1357.3 233.264C1359.04 239.246 1352.11 243.962 1347.18 240.151L1319.44 218.695C1317.11 216.893 1313.86 216.903 1311.54 218.719L1283.82 240.431C1278.9 244.281 1271.93 239.578 1273.67 233.58L1284.77 195.123C1285.62 192.2 1284.3 189.086 1281.61 187.657L1259.48 175.883C1253.71 172.814 1255.66 164.097 1262.19 163.776L1292.97 162.261C1295.64 162.129 1297.95 160.363 1298.78 157.822L1309.36 125.236C1311.29 119.308 1319.68 119.308 1321.6 125.236L1332.19 157.822C1333.01 160.363 1335.32 162.129 1337.99 162.261L1368.78 163.776ZM1330.8 60.4414V29.8018C1330.8 25.7387 1329.19 21.8421 1326.31 18.9691C1323.44 16.096 1319.54 14.482 1315.48 14.482C1311.42 14.482 1307.52 16.096 1304.65 18.9691C1301.78 21.8421 1300.16 25.7387 1300.16 29.8018V60.4414C1300.16 64.5045 1301.78 68.4011 1304.65 71.2742C1307.52 74.1472 1311.42 75.7612 1315.48 75.7612C1319.54 75.7612 1323.44 74.1472 1326.31 71.2742C1329.19 68.4011 1330.8 64.5045 1330.8 60.4414ZM1300.16 305.558V336.198C1300.16 340.261 1301.78 344.158 1304.65 347.031C1307.52 349.904 1311.42 351.518 1315.48 351.518C1319.54 351.518 1323.44 349.904 1326.31 347.031C1329.19 344.158 1330.8 340.261 1330.8 336.198V305.558C1330.8 301.495 1329.19 297.599 1326.31 294.726C1323.44 291.853 1319.54 290.239 1315.48 290.239C1311.42 290.239 1307.52 291.853 1304.65 294.726C1301.78 297.599 1300.16 301.495 1300.16 305.558ZM1434.64 63.8424C1431.77 60.9704 1427.87 59.357 1423.81 59.357C1419.75 59.357 1415.85 60.9704 1412.98 63.8424L1391.31 85.5046C1389.85 86.9178 1388.68 88.6083 1387.88 90.4774C1387.08 92.3465 1386.66 94.3567 1386.64 96.3909C1386.62 98.425 1387.01 100.442 1387.78 102.325C1388.55 104.208 1389.69 105.918 1391.12 107.357C1392.56 108.795 1394.27 109.933 1396.16 110.703C1398.04 111.473 1400.06 111.861 1402.09 111.843C1404.12 111.826 1406.14 111.403 1408 110.6C1409.87 109.797 1411.56 108.63 1412.98 107.167L1434.64 85.5046C1437.51 82.6318 1439.12 78.7358 1439.12 74.6735C1439.12 70.6113 1437.51 66.7153 1434.64 63.8424ZM1196.32 302.157C1199.2 305.029 1203.09 306.643 1207.16 306.643C1211.22 306.643 1215.11 305.029 1217.99 302.157L1239.65 280.495C1242.44 277.606 1243.98 273.736 1243.95 269.719C1243.91 265.702 1242.3 261.86 1239.46 259.02C1236.62 256.179 1232.78 254.568 1228.76 254.533C1224.75 254.498 1220.88 256.042 1217.99 258.833L1196.32 280.495C1193.45 283.368 1191.84 287.264 1191.84 291.326C1191.84 295.389 1193.45 299.285 1196.32 302.157ZM1468.68 167.68H1438.04C1433.98 167.68 1430.08 169.294 1427.21 172.167C1424.33 175.04 1422.72 178.937 1422.72 183C1422.72 187.063 1424.33 190.96 1427.21 193.833C1430.08 196.706 1433.98 198.32 1438.04 198.32H1468.68C1472.74 198.32 1476.64 196.706 1479.51 193.833C1482.39 190.96 1484 187.063 1484 183C1484 178.937 1482.39 175.04 1479.51 172.167C1476.64 169.294 1472.74 167.68 1468.68 167.68ZM1162.28 198.32H1192.92C1196.99 198.32 1200.88 196.706 1203.76 193.833C1206.63 190.96 1208.24 187.063 1208.24 183C1208.24 178.937 1206.63 175.04 1203.76 172.167C1200.88 169.294 1196.99 167.68 1192.92 167.68H1162.28C1158.22 167.68 1154.32 169.294 1151.45 172.167C1148.58 175.04 1146.96 178.937 1146.96 183C1146.96 187.063 1148.58 190.96 1151.45 193.833C1154.32 196.706 1158.22 198.32 1162.28 198.32ZM1412.98 302.157C1415.87 304.948 1419.74 306.492 1423.75 306.457C1427.77 306.422 1431.61 304.811 1434.45 301.971C1437.29 299.13 1438.9 295.288 1438.94 291.271C1438.97 287.254 1437.43 283.385 1434.64 280.495L1412.98 258.833C1410.09 256.042 1406.22 254.498 1402.2 254.533C1398.18 254.568 1394.34 256.179 1391.5 259.02C1388.66 261.86 1387.05 265.702 1387.02 269.719C1386.98 273.736 1388.52 277.606 1391.31 280.495L1412.98 302.157ZM1239.65 107.167C1242.52 104.294 1244.13 100.398 1244.13 96.3358C1244.13 92.2735 1242.52 88.3775 1239.65 85.5046L1217.99 63.8424C1215.1 61.0518 1211.23 59.5076 1207.21 59.5426C1203.19 59.5775 1199.35 61.1886 1196.51 64.029C1193.67 66.8695 1192.06 70.7119 1192.02 74.7287C1191.99 78.7455 1193.53 82.6153 1196.32 85.5046L1217.99 107.167C1220.86 110.039 1224.76 111.652 1228.82 111.652C1232.88 111.652 1236.78 110.039 1239.65 107.167Z" fill="#E8CCC4"/>
</g>
</g>
</g>
<defs>
<clipPath id="clip0_0_1">
<rect width="1440" height="1717" fill="white" transform="translate(0 -1232)"/>
</clipPath>
</defs>
</svg>
