<svg width="85" height="85" viewBox="0 0 85 85" fill="none" xmlns="http://www.w3.org/2000/svg">
<path fill-rule="evenodd" clip-rule="evenodd" d="M15.8287 0H69.1714V5.27624H85V24.0332C85 29.0078 83.0237 33.7788 79.5064 37.2964C76.6381 40.1644 72.9371 42.0077 68.9717 42.5907C68.3887 46.5561 66.5457 50.2571 63.6774 53.125C60.2283 56.5741 55.5741 58.5415 50.7047 58.6168V66.2429C50.7047 66.8658 50.9517 67.463 51.3922 67.903C51.8327 68.3435 52.4299 68.591 53.0524 68.591C55.9282 68.591 58.6859 69.7332 60.7192 71.7666C62.7526 73.7999 63.8952 76.558 63.8952 79.4334V85H21.1049V79.4334C21.1049 76.558 22.2473 73.7999 24.2807 71.7666C26.3141 69.7332 29.0719 68.591 31.9476 68.591C32.5703 68.591 33.1675 68.3435 33.6078 67.903C34.0481 67.463 34.2955 66.8658 34.2955 66.2429V58.6168C29.4258 58.5415 24.7716 56.5741 21.3225 53.125C18.4545 50.2571 16.6112 46.5561 16.0282 42.5907C12.0628 42.0077 8.36174 40.1644 5.49379 37.2964C1.97616 33.7788 0 29.0078 0 24.0332V5.27624H15.8287V0ZM15.8287 11.1328H5.85659V24.0332C5.85659 27.4546 7.21575 30.7359 9.63502 33.1552C11.3516 34.8717 13.5021 36.0546 15.8287 36.5969V11.1328ZM69.1714 36.5969V11.1328H79.1434V24.0332C79.1434 27.4546 77.7843 30.7359 75.3649 33.1552C73.6485 34.8717 71.4978 36.0546 69.1714 36.5969ZM42.4645 14.1667L45.8022 24.978H56.6667L47.8612 31.6886L51.3409 42.5L42.5355 35.7895L33.7302 42.5L37.1387 31.614L28.3333 24.9035H39.198L42.4645 14.1667Z" fill="#C2887E"/>
</svg>
