<svg width="94" height="94" viewBox="0 0 94 94" fill="none" xmlns="http://www.w3.org/2000/svg">
<path fill-rule="evenodd" clip-rule="evenodd" d="M47 94C72.944 94 94 72.944 94 47C94 21.056 72.944 0 47 0C21.056 0 0 21.056 0 47C0 72.944 21.056 94 47 94ZM26.273 24.863V40.843C28.717 37.929 31.631 36.472 35.015 36.472C36.754 36.472 38.305 36.801 39.715 37.459C41.125 38.117 42.159 38.963 42.864 39.997C43.569 41.031 44.039 42.159 44.321 43.428C44.603 44.65 44.697 46.577 44.697 49.209V66.27H37.13V50.854C37.13 47.799 36.989 45.872 36.707 45.026C36.425 44.18 35.908 43.569 35.203 43.052C34.498 42.582 33.558 42.3 32.477 42.3C31.208 42.3 30.08 42.629 29.14 43.24C28.153 43.851 27.401 44.791 26.978 46.06C26.508 47.329 26.273 49.162 26.273 51.606V66.223H18.706V24.863H26.273ZM56.024 24.863V40.843C58.468 37.929 61.382 36.472 64.766 36.472C66.505 36.472 68.056 36.801 69.466 37.459C70.876 38.117 71.91 38.963 72.615 39.997C73.32 41.031 73.79 42.159 74.072 43.428C74.354 44.65 74.448 46.577 74.448 49.209V66.27H66.881V50.854C66.881 47.799 66.74 45.872 66.458 45.026C66.176 44.18 65.659 43.569 64.954 43.052C64.249 42.582 63.309 42.3 62.228 42.3C60.959 42.3 59.831 42.629 58.891 43.24C57.904 43.851 57.199 44.791 56.729 46.06C56.259 47.329 56.024 49.162 56.024 51.606V66.27H48.457V24.863H56.024Z" fill="#C2887E"/>
</svg>
