<svg width="94" height="94" viewBox="0 0 94 94" fill="none" xmlns="http://www.w3.org/2000/svg">
<path fill-rule="evenodd" clip-rule="evenodd" d="M47 0C21.0426 0 0 21.0426 0 47C0 72.9574 21.0426 94 47 94C72.9574 94 94 72.9574 94 47C94 21.0426 72.9574 0 47 0ZM36.7714 46.6956C37.4848 45.8871 37.4288 44.6586 36.6449 43.9183L20.9305 29.0772C20.6761 28.8369 20.2278 28.9529 20.2278 29.303V64.697C20.2278 64.9599 20.5848 65.0398 20.7587 64.8428L36.7714 46.6956ZM71.5401 26.7722C71.7145 26.7722 71.7665 27.0259 71.6396 27.1457L48.3743 49.1135C47.6036 49.8412 46.3989 49.8412 45.6281 49.1134L22.3627 27.1442C22.2376 27.026 22.2896 26.7722 22.4617 26.7722H71.5401ZM47.0012 53.3213C47.2553 53.3213 47.5087 53.2253 47.7134 53.0277L52.7348 48.2919C53.5572 47.5163 54.8586 47.5759 55.6066 48.4235L71.7145 66.6754C71.8904 66.8747 71.8058 67.2279 71.5401 67.2279H22.4617C22.1996 67.2279 22.1168 66.8782 22.2902 66.6816L38.4041 48.4242C39.1524 47.5764 40.4543 47.5171 41.2766 48.2934L46.2913 53.0277C46.4938 53.2253 46.7477 53.3213 47.0012 53.3213ZM57.2377 46.6957C56.5243 45.8872 56.5802 44.6586 57.3642 43.9183L73.0817 29.0762C73.3351 28.837 73.7721 28.9546 73.7721 29.303V64.697C73.7721 64.9607 73.4241 65.0407 73.2497 64.843L57.2377 46.6957Z" fill="#C2887E"/>
</svg>
