<svg width="94" height="94" viewBox="0 0 94 94" fill="none" xmlns="http://www.w3.org/2000/svg">
<path fill-rule="evenodd" clip-rule="evenodd" d="M47 94C72.9574 94 94 72.9574 94 47C94 21.0426 72.9574 0 47 0C21.0426 0 0 21.0426 0 47C0 72.9574 21.0426 94 47 94ZM56.187 72.4844C61.8899 74.8075 66.7064 72.3818 68.6759 66.5252C69.0294 65.4737 69.054 64.4445 68.674 63.411C67.7551 60.9133 59.0497 54.5886 56.4449 54.4468C54.4471 54.3382 53.3652 55.6957 52.451 57.043C50.7221 59.5879 48.5306 59.6021 46.0862 58.5145C43.6266 57.4198 41.4745 56.016 39.6995 54.2409C37.9243 52.4659 36.5205 50.3138 35.4259 47.8541C34.3384 45.4099 34.3526 43.2183 36.8975 41.4895C38.2446 40.5753 39.6021 39.4933 39.4935 37.4956C39.3517 34.8908 33.027 26.1854 30.5294 25.2667C29.4958 24.8862 28.4666 24.9109 27.4152 25.2644C21.5585 27.2339 19.1328 32.0505 21.4559 37.7534C24.8016 45.9668 29.3026 53.0462 35.0984 58.842C40.8941 64.6379 47.9735 69.1388 56.187 72.4844ZM57.1315 37.0944C59.0502 39.013 60.2276 41.4631 60.4471 43.9929C60.5063 44.6763 60.4931 45.3629 60.4081 46.0333C60.2914 46.9511 60.9409 47.7895 61.8586 47.9061C61.9302 47.9151 62.0014 47.9195 62.0719 47.9195C62.9028 47.9194 63.6237 47.3014 63.7312 46.4554C63.8464 45.5497 63.8643 44.624 63.7846 43.7037C63.4972 40.3892 61.9757 37.2008 59.5004 34.7257C56.9372 32.1623 53.5935 30.5829 50.0851 30.2787C49.0975 30.1933 48.1061 30.2126 47.1381 30.3361C46.2205 30.4535 45.5718 31.2924 45.689 32.21C45.8061 33.1277 46.6476 33.7756 47.5627 33.6591C48.2945 33.5658 49.046 33.5513 49.7956 33.6162C52.5196 33.8523 55.1249 35.0876 57.1315 37.0944ZM49.3133 39.1786C52.1054 39.4205 54.6568 41.8462 54.8848 44.4751C54.9039 44.6962 54.9062 44.9156 54.8918 45.1271C54.829 46.0501 55.5262 46.8491 56.4492 46.912C56.488 46.9147 56.5264 46.916 56.5647 46.916C57.4379 46.916 58.174 46.2388 58.2341 45.3547C58.2603 44.9716 58.2563 44.5785 58.2223 44.1859C57.8501 39.8932 54.064 36.2277 49.6027 35.841C49.2387 35.8096 48.8742 35.8013 48.5186 35.8157C47.5942 35.8538 46.8759 36.634 46.914 37.5583C46.9521 38.4826 47.7334 39.1996 48.6566 39.1628C48.8702 39.154 49.0911 39.1592 49.3133 39.1786ZM67.4977 49.3784C68.2969 49.3784 69.0043 48.8041 69.1459 47.9897C69.4178 46.4243 69.4855 44.8202 69.3468 43.2215C68.946 38.6001 66.8511 34.1807 63.4481 30.7777C59.9568 27.2864 55.3822 25.1338 50.5667 24.7163C48.987 24.5795 47.4024 24.6342 45.8571 24.8794C44.9436 25.0244 44.3203 25.8824 44.4652 26.7962C44.6102 27.7096 45.4673 28.3328 46.3818 28.188C47.6585 27.9854 48.9693 27.9401 50.2773 28.0538C54.3086 28.4032 58.1448 30.2118 61.0793 33.1464C63.9257 35.9927 65.6766 39.6735 66.0093 43.5107C66.1229 44.8215 66.0679 46.1356 65.8454 47.4164C65.6869 48.3279 66.2976 49.1951 67.2089 49.3533C67.3061 49.3702 67.4024 49.3784 67.4977 49.3784Z" fill="#C2887E"/>
</svg>
