<svg width="192" height="192" viewBox="0 0 192 192" fill="none" xmlns="http://www.w3.org/2000/svg">
<path d="M100.593 153.51H100.429L100.434 153.515H100.38C96.2609 153.515 92.246 153.064 88.7467 152.28L88.3848 152.216C84.5484 151.368 80.8607 150.118 77.7132 148.65L77.3563 148.501C73.8669 146.889 70.5707 144.935 67.6612 142.798L67.5026 142.689C64.3948 140.417 61.5298 137.829 58.9127 134.922H84.9747C88.3699 134.908 91.1258 132.15 91.1407 128.748V66.7222C91.1258 63.3251 88.3699 60.5677 84.9697 60.5528H58.9127L58.9573 60.5033C63.562 55.3803 69.0936 51.1054 75.6066 47.8074L75.2944 47.9513C81.4951 44.7872 88.3799 42.7738 95.8594 42.1786V102.31H155.958L155.944 102.508C155.155 112.12 151.904 121.036 146.957 128.421L146.828 128.624C141.887 136.004 135.245 142.153 127.175 146.651L127.458 146.507C123.517 148.714 119.284 150.45 114.442 151.734L114.823 151.645C110.283 152.86 105.515 153.51 100.593 153.51Z" fill="#C2887E"/>
<path fill-rule="evenodd" clip-rule="evenodd" d="M72.4889 88.6423C72.4889 88.796 72.4889 88.9547 72.484 89.0886L72.4698 89.0934C72.4696 89.0885 72.4693 89.0836 72.4691 89.0787V89.0936L72.4698 89.0934C72.4741 89.1931 72.4741 89.2971 72.4741 89.4011C72.4741 91.8113 71.8694 94.0826 70.8433 95.9969L70.8037 96.0763C69.7479 97.9807 68.2956 99.642 66.5212 100.966L66.5757 100.926C64.7913 102.261 62.7789 103.302 60.4642 104.021L60.6277 103.976C58.4022 104.691 56.028 105.077 53.5645 105.077H45.8421V122.073H34.4469V73.3429H54.3527C56.8458 73.3429 59.2647 73.6603 61.3712 74.2107L61.4852 74.2355C63.5967 74.7712 65.5397 75.7283 67.1853 76.9731L67.2151 76.9929C68.8409 78.2575 70.1593 79.8991 71.0713 81.8679L71.0267 81.7588C71.9685 83.8615 72.4889 86.1924 72.4889 88.6423ZM53.3217 82.83C53.1432 82.83 52.9648 82.835 52.8111 82.8449H45.8421V95.0398H52.5286C53.5001 95.0348 54.4518 94.9456 55.2795 94.7869L55.3291 94.7819C56.2609 94.6232 57.1432 94.3058 57.8966 93.8843L57.9264 93.8694C58.6649 93.4479 59.3043 92.8775 59.8148 92.1783L59.8049 92.1932C60.3006 91.4691 60.5881 90.5913 60.5881 89.649C60.5881 89.5796 60.5881 89.5102 60.5831 89.4507L60.5782 89.4804C60.6079 89.2473 60.6228 89.0093 60.6228 88.7712C60.6228 86.9561 59.7901 85.3345 58.4766 84.2583L58.5212 84.2831C57.0044 83.3607 55.225 82.83 53.3217 82.83Z" fill="#C2887E"/>
<path d="M105.079 93.0858V42.1737L105.084 42.1836L105.287 42.1985C112.097 42.7787 118.551 44.6037 124.097 47.3016L124.434 47.4454C135.894 52.9403 145.193 62.234 150.848 74.0273L150.704 73.6999C153.554 79.5817 155.383 86.0585 155.963 93.0858H105.079Z" fill="#C2887E"/>
<path fill-rule="evenodd" clip-rule="evenodd" d="M159.794 0H31.9589C14.3815 0 0 14.3815 0 31.9589V159.794C0 177.372 14.3815 191.753 31.9589 191.753H159.794C177.372 191.753 191.753 177.372 191.753 159.794V31.9589C191.753 14.3815 177.371 0 159.794 0ZM100.652 32.6618H100.429L100.424 32.6717H100.355C89.386 32.6717 79.0515 35.3993 70.3427 40.0412L69.9908 40.2148C60.9103 45.065 53.1085 51.9881 47.0714 60.5628H22.8979C21.2226 60.5628 19.7059 61.2571 18.6253 62.3779C17.5051 63.459 16.8112 64.9765 16.8112 66.6528V128.832C16.8112 130.509 17.5051 132.026 18.6253 133.107C19.7108 134.228 21.2226 134.922 22.9029 134.922H47.0813L47.2201 135.131C53.1185 143.497 60.9202 150.425 70.3477 155.444L69.9958 155.275C79.0812 160.096 89.4505 162.828 100.454 162.828C106.605 162.828 112.558 161.97 117.743 160.488L118.204 160.374C139.835 154.219 156.88 137.164 163.146 115.06L163.036 115.522C164.623 109.863 165.47 103.902 165.47 97.7377C165.47 91.5732 164.623 85.6072 163.146 80.4148L163.032 79.9536C156.88 58.3112 139.835 41.2562 117.743 34.9877L118.194 35.0968C112.618 33.5098 106.734 32.6618 100.652 32.6618Z" fill="#C2887E"/>
</svg>
