<svg width="193" height="192" viewBox="0 0 193 192" fill="none" xmlns="http://www.w3.org/2000/svg">
<path d="M160.738 0H32.9032C15.3258 0 0.944336 14.3815 0.944336 31.9589V159.794C0.944336 177.372 15.3258 191.753 32.9032 191.753H160.739C178.316 191.753 192.697 177.372 192.697 159.794V31.9589C192.697 14.3815 178.316 0 160.738 0ZM92.8164 97.574C86.161 104.229 75.7009 107.355 63.8835 107.355C60.7592 107.355 57.9069 107.218 55.7331 106.81V141.313H39.1624V50.9826C45.139 49.8962 53.4253 49.0804 64.6982 49.0804C76.9246 49.0804 85.8897 51.6614 91.7308 56.552C97.1644 61.0351 100.696 68.2339 100.696 76.7915C100.695 85.4853 97.9787 92.6837 92.8164 97.574ZM127.584 142.672C119.569 142.672 112.371 140.77 107.48 138.053L110.74 125.964C114.543 128.273 121.743 130.719 127.72 130.719C135.054 130.719 138.315 127.73 138.315 123.383C138.315 118.901 135.599 116.591 127.448 113.739C114.543 109.256 109.111 102.193 109.247 94.45C109.247 82.7681 118.891 73.6676 134.24 73.6676C141.576 73.6676 147.96 75.5697 151.762 77.6062L148.502 89.4239C145.65 87.7946 140.352 85.6208 134.511 85.6208C128.534 85.6208 125.274 88.4734 125.274 92.5479C125.274 96.7597 128.399 98.7977 136.821 101.786C148.774 106.132 154.343 112.244 154.479 122.026C154.479 133.979 145.107 142.672 127.584 142.672ZM83.9871 77.4703C83.9871 88.2017 76.3797 94.3142 63.8835 94.3142C60.4879 94.3142 57.7711 94.1784 55.7331 93.6354V62.6645C57.4997 62.2573 60.7595 61.8498 65.3785 61.8498C76.9246 61.8498 83.9871 67.2834 83.9871 77.4703Z" fill="#758F8A"/>
</svg>
