<svg width="1123" height="1123" viewBox="0 0 1123 1123" fill="none" xmlns="http://www.w3.org/2000/svg">
<path fill-rule="evenodd" clip-rule="evenodd" d="M1120.33 616.558L720.91 577.685C721.417 572.47 721.688 567.077 721.688 561.5C721.688 555.923 721.417 550.53 720.91 545.315L1120.33 506.442C1122.1 524.556 1123 542.923 1123 561.5C1123 580.077 1122.1 598.444 1120.33 616.558ZM1098.96 398.45L714.888 514.813C711.886 504.904 707.913 495.351 703.036 486.245L1056.8 296.764C1074.02 328.915 1088.2 362.939 1098.96 398.45ZM995.562 205.283L685.486 460.047C678.732 451.826 671.174 444.268 662.953 437.514L917.717 127.438C946.133 150.785 972.215 176.867 995.562 205.283ZM826.236 66.2015L636.755 419.964C627.649 415.087 618.096 411.114 608.187 408.112L724.55 24.0396C760.061 34.7985 794.085 48.9804 826.236 66.2015ZM616.558 2.66507L577.685 402.09C572.47 401.583 567.077 401.312 561.5 401.312C555.923 401.312 550.53 401.583 545.315 402.09L506.442 2.66506C524.556 0.902161 542.923 0 561.5 0C580.077 0 598.444 0.902163 616.558 2.66507ZM398.45 24.0396L514.813 408.112C504.904 411.114 495.351 415.087 486.245 419.964L296.764 66.2014C328.915 48.9804 362.939 34.7985 398.45 24.0396ZM205.283 127.438L460.047 437.514C451.826 444.268 444.268 451.826 437.514 460.047L127.438 205.283C150.785 176.867 176.867 150.785 205.283 127.438ZM66.2015 296.764L419.964 486.245C415.087 495.351 411.114 504.904 408.112 514.813L24.0396 398.45C34.7985 362.939 48.9804 328.915 66.2015 296.764ZM2.66507 506.442L402.09 545.315C401.583 550.53 401.312 555.923 401.312 561.5C401.312 567.077 401.583 572.47 402.09 577.685L2.66506 616.558C0.902161 598.444 0 580.077 0 561.5C0 542.923 0.902163 524.556 2.66507 506.442ZM24.0396 724.55L408.112 608.187C411.114 618.096 415.087 627.649 419.964 636.755L66.2014 826.236C48.9804 794.085 34.7985 760.061 24.0396 724.55ZM127.438 917.717L437.514 662.953C444.268 671.174 451.826 678.732 460.047 685.486L205.283 995.562C176.867 972.215 150.785 946.133 127.438 917.717ZM296.764 1056.8L486.245 703.036C495.351 707.913 504.904 711.886 514.813 714.888L398.45 1098.96C362.939 1088.2 328.915 1074.02 296.764 1056.8ZM506.442 1120.33L545.315 720.91C550.53 721.417 555.923 721.688 561.5 721.688C567.077 721.688 572.47 721.417 577.685 720.91L616.558 1120.33C598.444 1122.1 580.077 1123 561.5 1123C542.923 1123 524.556 1122.1 506.442 1120.33ZM724.55 1098.96L608.187 714.888C618.096 711.886 627.649 707.913 636.755 703.036L826.236 1056.8C794.085 1074.02 760.061 1088.2 724.55 1098.96ZM917.717 995.562L662.953 685.486C671.174 678.732 678.732 671.174 685.486 662.953L995.562 917.717C972.215 946.133 946.133 972.215 917.717 995.562ZM1056.8 826.236L703.036 636.755C707.913 627.649 711.886 618.096 714.888 608.187L1098.96 724.55C1088.2 760.061 1074.02 794.085 1056.8 826.236Z" fill="#E8CCC4" fill-opacity="0.2"/>
</svg>
