<svg width="123" height="123" viewBox="0 0 123 123" fill="none" xmlns="http://www.w3.org/2000/svg">
<path d="M80.9492 54.4841C83.3307 54.6013 84.0417 57.7826 81.9367 58.9025L73.8635 63.1977C72.8819 63.72 72.4012 64.8591 72.7118 65.9267L76.7606 79.8436C77.3957 82.0266 74.8676 83.748 73.0692 82.357L62.9456 74.5268C62.0955 73.8692 60.9073 73.8728 60.0611 74.5355L49.9436 82.4593C48.1498 83.8641 45.6076 82.148 46.2397 79.9591L50.2929 65.9241C50.6009 64.8575 50.1199 63.721 49.1399 63.1995L41.0633 58.9025C38.9583 57.7826 39.6693 54.6013 42.0508 54.4841L53.2853 53.9312C54.259 53.8833 55.1019 53.2387 55.4031 52.3115L59.2667 40.4194C59.9696 38.2559 63.0304 38.2559 63.7333 40.4194L67.5969 52.3115C67.8981 53.2387 68.741 53.8833 69.7147 53.9312L80.9492 54.4841ZM67.0909 16.7727V5.59091C67.0909 4.10811 66.5019 2.68604 65.4534 1.63754C64.4049 0.58904 62.9828 0 61.5 0C60.0172 0 58.5951 0.58904 57.5466 1.63754C56.4981 2.68604 55.9091 4.10811 55.9091 5.59091V16.7727C55.9091 18.2555 56.4981 19.6776 57.5466 20.7261C58.5951 21.7746 60.0172 22.3636 61.5 22.3636C62.9828 22.3636 64.4049 21.7746 65.4534 20.7261C66.5019 19.6776 67.0909 18.2555 67.0909 16.7727ZM55.9091 106.227V117.409C55.9091 118.892 56.4981 120.314 57.5466 121.362C58.5951 122.411 60.0172 123 61.5 123C62.9828 123 64.4049 122.411 65.4534 121.362C66.5019 120.314 67.0909 118.892 67.0909 117.409V106.227C67.0909 104.744 66.5019 103.322 65.4534 102.274C64.4049 101.225 62.9828 100.636 61.5 100.636C60.0172 100.636 58.5951 101.225 57.5466 102.274C56.4981 103.322 55.9091 104.744 55.9091 106.227ZM104.986 18.0139C103.938 16.9658 102.516 16.377 101.033 16.377C99.5508 16.377 98.129 16.9658 97.0805 18.0139L89.175 25.9195C88.641 26.4352 88.2151 27.0521 87.9221 27.7342C87.6291 28.4164 87.4748 29.15 87.4684 29.8923C87.4619 30.6347 87.6034 31.3709 87.8845 32.058C88.1656 32.7451 88.5808 33.3694 89.1057 33.8943C89.6306 34.4192 90.2549 34.8344 90.942 35.1155C91.6291 35.3966 92.3653 35.5381 93.1077 35.5316C93.85 35.5252 94.5836 35.3709 95.2658 35.0779C95.9479 34.7849 96.5648 34.359 97.0805 33.825L104.986 25.9195C106.034 24.871 106.623 23.4492 106.623 21.9667C106.623 20.4842 106.034 19.0624 104.986 18.0139ZM18.0139 104.986C19.0624 106.034 20.4842 106.623 21.9667 106.623C23.4492 106.623 24.871 106.034 25.9195 104.986L33.825 97.0805C34.8434 96.0261 35.407 94.6138 35.3942 93.1479C35.3815 91.682 34.7935 90.2797 33.7569 89.2431C32.7203 88.2065 31.318 87.6185 29.8521 87.6058C28.3862 87.593 26.9739 88.1566 25.9195 89.175L18.0139 97.0805C16.9658 98.129 16.377 99.5508 16.377 101.033C16.377 102.516 16.9658 103.938 18.0139 104.986ZM117.409 55.9091H106.227C104.744 55.9091 103.322 56.4981 102.274 57.5466C101.225 58.5951 100.636 60.0172 100.636 61.5C100.636 62.9828 101.225 64.4049 102.274 65.4534C103.322 66.5019 104.744 67.0909 106.227 67.0909H117.409C118.892 67.0909 120.314 66.5019 121.362 65.4534C122.411 64.4049 123 62.9828 123 61.5C123 60.0172 122.411 58.5951 121.362 57.5466C120.314 56.4981 118.892 55.9091 117.409 55.9091ZM5.59091 67.0909H16.7727C18.2555 67.0909 19.6776 66.5019 20.7261 65.4534C21.7746 64.4049 22.3636 62.9828 22.3636 61.5C22.3636 60.0172 21.7746 58.5951 20.7261 57.5466C19.6776 56.4981 18.2555 55.9091 16.7727 55.9091H5.59091C4.10811 55.9091 2.68604 56.4981 1.63754 57.5466C0.58904 58.5951 0 60.0172 0 61.5C0 62.9828 0.58904 64.4049 1.63754 65.4534C2.68604 66.5019 4.10811 67.0909 5.59091 67.0909ZM97.0805 104.986C98.135 106.005 99.5473 106.568 101.013 106.555C102.479 106.543 103.881 105.955 104.918 104.918C105.955 103.881 106.543 102.479 106.555 101.013C106.568 99.5473 106.005 98.135 104.986 97.0805L97.0805 89.175C96.0261 88.1566 94.6138 87.593 93.1479 87.6058C91.682 87.6185 90.2797 88.2065 89.2431 89.2431C88.2065 90.2797 87.6185 91.682 87.6058 93.1479C87.593 94.6138 88.1566 96.0261 89.175 97.0805L97.0805 104.986ZM33.825 33.825C34.8731 32.7766 35.4619 31.3547 35.4619 29.8722C35.4619 28.3897 34.8731 26.9679 33.825 25.9195L25.9195 18.0139C24.865 16.9955 23.4527 16.4319 21.9868 16.4447C20.5209 16.4574 19.1186 17.0454 18.082 18.082C17.0454 19.1186 16.4574 20.5209 16.4447 21.9868C16.4319 23.4527 16.9955 24.865 18.0139 25.9195L25.9195 33.825C26.9679 34.8731 28.3897 35.4619 29.8722 35.4619C31.3547 35.4619 32.7766 34.8731 33.825 33.825Z" fill="#E8DED4"/>
</svg>
