<svg width="94" height="94" viewBox="0 0 94 94" fill="none" xmlns="http://www.w3.org/2000/svg">
<path fill-rule="evenodd" clip-rule="evenodd" d="M47 94C72.9574 94 94 72.9574 94 47C94 21.0426 72.9574 0 47 0C21.0426 0 0 21.0426 0 47C0 72.9574 21.0426 94 47 94ZM62.2229 72.3113L72.1176 24.341C72.3722 23.1039 71.1663 22.0719 69.9975 22.5275L14.8624 43.9656C13.5016 44.4939 13.5133 46.4357 14.878 46.951L28.3124 52.0047L33.5124 68.8602C33.8452 69.939 35.1549 70.3382 36.0239 69.6219L43.5125 63.469C44.2975 62.824 45.4157 62.7921 46.2356 63.3923L59.7426 73.2761C60.6724 73.9571 61.99 73.4439 62.2229 72.3113ZM58.9305 33.0157L32.6747 49.3145C31.6685 49.9405 31.1948 51.1653 31.5195 52.3121L34.3582 62.3658C34.5601 63.078 35.5854 63.0053 35.6837 62.2693L36.4215 56.7561C36.5609 55.718 37.052 54.7612 37.8138 54.0469L59.4821 33.7455C59.8879 33.3667 59.4022 32.7237 58.9305 33.0157Z" fill="#C2887E"/>
</svg>
