<svg width="1403" height="310" viewBox="0 0 1403 310" fill="none" xmlns="http://www.w3.org/2000/svg">
<g opacity="0.3">
<path d="M203.799 137.337C209.795 137.632 211.585 145.641 206.285 148.46L185.96 159.274C183.489 160.589 182.278 163.457 183.06 166.145L193.254 201.182C194.853 206.678 188.488 211.012 183.96 207.51L158.473 187.796C156.333 186.141 153.341 186.15 151.211 187.818L125.739 207.767C121.223 211.304 114.822 206.984 116.414 201.473L126.618 166.138C127.394 163.453 126.183 160.592 123.715 159.279L103.382 148.46C98.0821 145.641 99.8721 137.632 105.868 137.337L134.152 135.945C136.603 135.824 138.725 134.201 139.484 131.867L149.211 101.927C150.981 96.4802 158.686 96.4802 160.456 101.927L170.183 131.867C170.941 134.201 173.063 135.824 175.515 135.945L203.799 137.337ZM168.909 42.3938V14.2423C168.909 10.5091 167.426 6.92892 164.787 4.2892C162.147 1.64948 158.567 0.166504 154.833 0.166504C151.1 0.166504 147.52 1.64948 144.88 4.2892C142.241 6.92892 140.758 10.5091 140.758 14.2423V42.3938C140.758 46.1269 142.241 49.7072 144.88 52.3469C147.52 54.9866 151.1 56.4696 154.833 56.4696C158.567 56.4696 162.147 54.9866 164.787 52.3469C167.426 49.7072 168.909 46.1269 168.909 42.3938ZM140.758 267.606V295.758C140.758 299.491 142.241 303.071 144.88 305.711C147.52 308.35 151.1 309.833 154.833 309.833C158.567 309.833 162.147 308.35 164.787 305.711C167.426 303.071 168.909 299.491 168.909 295.758V267.606C168.909 263.873 167.426 260.293 164.787 257.653C162.147 255.013 158.567 253.53 154.833 253.53C151.1 253.53 147.52 255.013 144.88 257.653C142.241 260.293 140.758 263.873 140.758 267.606ZM264.315 45.5186C261.675 42.8798 258.096 41.3974 254.363 41.3974C250.631 41.3974 247.051 42.8798 244.412 45.5186L224.509 65.4218C223.164 66.7202 222.092 68.2734 221.354 69.9907C220.616 71.708 220.228 73.555 220.212 75.424C220.196 77.293 220.552 79.1465 221.26 80.8763C221.967 82.6062 223.012 84.1778 224.334 85.4994C225.656 86.821 227.227 87.8662 228.957 88.5739C230.687 89.2816 232.54 89.6378 234.409 89.6215C236.278 89.6053 238.125 89.217 239.843 88.4793C241.56 87.7416 243.113 86.6693 244.412 85.3249L264.315 65.4218C266.954 62.7822 268.436 59.2026 268.436 55.4702C268.436 51.7378 266.954 48.1582 264.315 45.5186ZM45.3521 264.481C47.9917 267.12 51.5713 268.602 55.3037 268.602C59.0361 268.602 62.6157 267.12 65.2553 264.481L85.1584 244.578C87.7224 241.923 89.1412 238.368 89.1091 234.677C89.077 230.987 87.5967 227.456 84.9869 224.846C82.3772 222.237 78.8468 220.756 75.1562 220.724C71.4656 220.692 67.91 222.111 65.2553 224.675L45.3521 244.578C42.7133 247.218 41.2309 250.797 41.2309 254.53C41.2309 258.262 42.7133 261.842 45.3521 264.481ZM295.591 140.924H267.44C263.706 140.924 260.126 142.407 257.487 145.047C254.847 147.687 253.364 151.267 253.364 155C253.364 158.733 254.847 162.313 257.487 164.953C260.126 167.593 263.706 169.076 267.44 169.076H295.591C299.324 169.076 302.905 167.593 305.544 164.953C308.184 162.313 309.667 158.733 309.667 155C309.667 151.267 308.184 147.687 305.544 145.047C302.905 142.407 299.324 140.924 295.591 140.924ZM14.0758 169.076H42.2273C45.9604 169.076 49.5407 167.593 52.1804 164.953C54.8201 162.313 56.3031 158.733 56.3031 155C56.3031 151.267 54.8201 147.687 52.1804 145.047C49.5407 142.407 45.9604 140.924 42.2273 140.924H14.0758C10.3426 140.924 6.76241 142.407 4.1227 145.047C1.48298 147.687 0 151.267 0 155C0 158.733 1.48298 162.313 4.1227 164.953C6.76241 167.593 10.3426 169.076 14.0758 169.076ZM244.412 264.481C247.066 267.045 250.622 268.464 254.313 268.432C258.003 268.4 261.534 266.92 264.143 264.31C266.753 261.7 268.233 258.17 268.266 254.479C268.298 250.788 266.879 247.233 264.315 244.578L244.412 224.675C241.757 222.111 238.201 220.692 234.511 220.724C230.82 220.756 227.29 222.237 224.68 224.846C222.07 227.456 220.59 230.987 220.558 234.677C220.526 238.368 221.945 241.923 224.509 244.578L244.412 264.481ZM85.1584 85.3249C87.7972 82.6853 89.2796 79.1057 89.2796 75.3733C89.2796 71.6409 87.7972 68.0614 85.1584 65.4218L65.2553 45.5186C62.6005 42.9546 59.045 41.5359 55.3543 41.5679C51.6637 41.6 48.1334 43.0803 45.5236 45.6901C42.9138 48.2999 41.4335 51.8302 41.4014 55.5208C41.3694 59.2115 42.7881 62.767 45.3521 65.4218L65.2553 85.3249C67.8949 87.9637 71.4744 89.4461 75.2068 89.4461C78.9392 89.4461 82.5188 87.9637 85.1584 85.3249Z" fill="#C2887E"/>
<path d="M1297.13 137.337C1303.13 137.632 1304.92 145.641 1299.62 148.46L1279.29 159.274C1276.82 160.589 1275.61 163.457 1276.39 166.145L1286.59 201.182C1288.19 206.678 1281.82 211.012 1277.29 207.51L1251.81 187.796C1249.67 186.141 1246.67 186.15 1244.54 187.818L1219.07 207.767C1214.56 211.304 1208.16 206.984 1209.75 201.473L1219.95 166.138C1220.73 163.453 1219.52 160.592 1217.05 159.279L1196.71 148.46C1191.42 145.641 1193.21 137.632 1199.2 137.337L1227.48 135.945C1229.94 135.824 1232.06 134.201 1232.82 131.867L1242.54 101.927C1244.31 96.4802 1252.02 96.4802 1253.79 101.927L1263.52 131.867C1264.27 134.201 1266.4 135.824 1268.85 135.945L1297.13 137.337ZM1262.24 42.3938V14.2423C1262.24 10.5091 1260.76 6.92892 1258.12 4.2892C1255.48 1.64948 1251.9 0.166504 1248.17 0.166504C1244.43 0.166504 1240.85 1.64948 1238.21 4.2892C1235.57 6.92892 1234.09 10.5091 1234.09 14.2423V42.3938C1234.09 46.1269 1235.57 49.7072 1238.21 52.3469C1240.85 54.9866 1244.43 56.4696 1248.17 56.4696C1251.9 56.4696 1255.48 54.9866 1258.12 52.3469C1260.76 49.7072 1262.24 46.1269 1262.24 42.3938ZM1234.09 267.606V295.758C1234.09 299.491 1235.57 303.071 1238.21 305.711C1240.85 308.35 1244.43 309.833 1248.17 309.833C1251.9 309.833 1255.48 308.35 1258.12 305.711C1260.76 303.071 1262.24 299.491 1262.24 295.758V267.606C1262.24 263.873 1260.76 260.293 1258.12 257.653C1255.48 255.013 1251.9 253.53 1248.17 253.53C1244.43 253.53 1240.85 255.013 1238.21 257.653C1235.57 260.293 1234.09 263.873 1234.09 267.606ZM1357.65 45.5186C1355.01 42.8798 1351.43 41.3974 1347.7 41.3974C1343.96 41.3974 1340.38 42.8798 1337.74 45.5186L1317.84 65.4218C1316.5 66.7202 1315.42 68.2734 1314.69 69.9907C1313.95 71.708 1313.56 73.555 1313.54 75.424C1313.53 77.293 1313.88 79.1465 1314.59 80.8763C1315.3 82.6062 1316.35 84.1778 1317.67 85.4994C1318.99 86.821 1320.56 87.8662 1322.29 88.5739C1324.02 89.2816 1325.87 89.6378 1327.74 89.6215C1329.61 89.6053 1331.46 89.217 1333.18 88.4793C1334.89 87.7416 1336.45 86.6693 1337.74 85.3249L1357.65 65.4218C1360.29 62.7822 1361.77 59.2026 1361.77 55.4702C1361.77 51.7378 1360.29 48.1582 1357.65 45.5186ZM1138.69 264.481C1141.32 267.12 1144.9 268.602 1148.64 268.602C1152.37 268.602 1155.95 267.12 1158.59 264.481L1178.49 244.578C1181.06 241.923 1182.47 238.368 1182.44 234.677C1182.41 230.987 1180.93 227.456 1178.32 224.846C1175.71 222.237 1172.18 220.756 1168.49 220.724C1164.8 220.692 1161.24 222.111 1158.59 224.675L1138.69 244.578C1136.05 247.218 1134.56 250.797 1134.56 254.53C1134.56 258.262 1136.05 261.842 1138.69 264.481ZM1388.92 140.924H1360.77C1357.04 140.924 1353.46 142.407 1350.82 145.047C1348.18 147.687 1346.7 151.267 1346.7 155C1346.7 158.733 1348.18 162.313 1350.82 164.953C1353.46 167.593 1357.04 169.076 1360.77 169.076H1388.92C1392.66 169.076 1396.24 167.593 1398.88 164.953C1401.52 162.313 1403 158.733 1403 155C1403 151.267 1401.52 147.687 1398.88 145.047C1396.24 142.407 1392.66 140.924 1388.92 140.924ZM1107.41 169.076H1135.56C1139.29 169.076 1142.87 167.593 1145.51 164.953C1148.15 162.313 1149.64 158.733 1149.64 155C1149.64 151.267 1148.15 147.687 1145.51 145.047C1142.87 142.407 1139.29 140.924 1135.56 140.924H1107.41C1103.68 140.924 1100.1 142.407 1097.46 145.047C1094.82 147.687 1093.33 151.267 1093.33 155C1093.33 158.733 1094.82 162.313 1097.46 164.953C1100.1 167.593 1103.68 169.076 1107.41 169.076ZM1337.74 264.481C1340.4 267.045 1343.95 268.464 1347.65 268.432C1351.34 268.4 1354.87 266.92 1357.48 264.31C1360.09 261.7 1361.57 258.17 1361.6 254.479C1361.63 250.788 1360.21 247.233 1357.65 244.578L1337.74 224.675C1335.09 222.111 1331.53 220.692 1327.84 220.724C1324.15 220.756 1320.62 222.237 1318.01 224.846C1315.4 227.456 1313.92 230.987 1313.89 234.677C1313.86 238.368 1315.28 241.923 1317.84 244.578L1337.74 264.481ZM1178.49 85.3249C1181.13 82.6853 1182.61 79.1057 1182.61 75.3733C1182.61 71.6409 1181.13 68.0614 1178.49 65.4218L1158.59 45.5186C1155.93 42.9546 1152.38 41.5359 1148.69 41.5679C1145 41.6 1141.47 43.0803 1138.86 45.6901C1136.25 48.2999 1134.77 51.8302 1134.73 55.5208C1134.7 59.2115 1136.12 62.767 1138.69 65.4218L1158.59 85.3249C1161.23 87.9637 1164.81 89.4461 1168.54 89.4461C1172.27 89.4461 1175.85 87.9637 1178.49 85.3249Z" fill="#C2887E"/>
</g>
</svg>
