<svg xmlns="http://www.w3.org/2000/svg" viewBox="0 0 399.2 473.43">
  <defs>
    <style>
      .cls-1 {
        fill: #c2887e;
      }

      .cls-2 {
        fill: #282022;
      }
    </style>
  </defs>
  <title>cats-place-logo</title>
  <g id="Слой_2" data-name="Слой 2">
    <g id="Слой_1-2" data-name="Слой 1">
      <g>
        <path class="cls-1" d="M387,431.54c0,23.41-3.71,27.49-27.13,27.62-53.53.32-107.07.1-160.6.1-52.23,0-104.45.21-156.69-.07-25.75-.14-30.55-5.31-30.57-31.31-.08-83.57.24-167.13-.14-250.7C11.74,145.6,23.83,121.36,51.53,106,66.31,97.78,74,86.27,78.17,69.75c11.46-45,53.64-65.39,98-51.19,12.72,4.07,28.68,5,41.29,1.21,49.69-15,85.1.58,102.16,49.81,5.69,16.43,13.17,27.81,29.24,36.13,26.35,13.62,38.73,36.52,38.46,67.3C386.54,259.17,387.08,345.36,387,431.54Z"/>
        <path class="cls-2" d="M399.19,169c.29-32.72-12.87-57.08-40.88-71.56-17.1-8.84-25.05-20.94-31.1-38.42C309.08,6.66,271.41-9.88,218.59,6c-13.42,4-30.39,3-43.92-1.3-47.14-15.1-92,6.61-104.19,54.44C66,76.74,57.87,89,42.15,97.71,12.7,114.05-.15,139.84,0,173.41.41,262.27.08,351.13.15,440c0,27.66,5.13,33.15,32.52,33.29,55.53.3,111.07.09,166.6.09,56.92,0,113.85.22,170.77-.11,24.9-.15,28.82-4.49,28.84-29.38C399,352.24,398.37,260.6,399.19,169Zm-290-.79c-.83,19.33-12.78,29.9-32.82,29-17.32-.75-32-15.78-31.59-32.25s17.83-32.4,34.67-31.78C98.4,133.87,110,147.55,109.14,168.18Zm6.44-92.66C116,58,129.87,44.89,148.21,44.91c17.25,0,32.94,14.35,33.43,30.54.5,16.63-16.09,33.33-33.41,33.63C130.63,109.39,115.19,93.52,115.58,75.52ZM260.92,274a30.74,30.74,0,0,1-14.61,4.31c-14.85.48-30.1-6.69-41-19.47a7.18,7.18,0,0,0-11.14,0c-10.88,12.77-26.14,19.95-41,19.47A31.14,31.14,0,0,1,138.59,274c-19.12-11.7-22-47.43-17.19-68.92,7.32-32.82,38.28-68.94,77.91-76.75,39.62,7.82,70.68,43.76,78.23,76.6C282.47,226.41,279.93,262.29,260.92,274ZM251.21,109.1c-17.82-.39-32.39-15.9-31.91-34,.48-17.58,14.13-30.33,32.38-30.22,18.07.1,31.83,13.4,31.79,30.73C283.42,94.28,268.77,109.48,251.21,109.1Zm71.27,88.14c-19.89.44-33.12-12.26-32.82-31.52.28-18,15.45-33,33-32.55,16.09.37,31.29,16.15,31.3,32.49C354,183.59,340.79,196.83,322.48,197.24Z"/>
      </g>
    </g>
  </g>
</svg>
